<?xml version="1.0" encoding="UTF-8" standalone="no"?>
<!-- Created with Inkscape (http://www.inkscape.org/) -->

<svg
   xmlns:dc="http://purl.org/dc/elements/1.1/"
   xmlns:cc="http://creativecommons.org/ns#"
   xmlns:rdf="http://www.w3.org/1999/02/22-rdf-syntax-ns#"
   xmlns:svg="http://www.w3.org/2000/svg"
   xmlns="http://www.w3.org/2000/svg"
   xmlns:sodipodi="http://sodipodi.sourceforge.net/DTD/sodipodi-0.dtd"
   xmlns:inkscape="http://www.inkscape.org/namespaces/inkscape"
   id="svg3393"
   version="1.1"
   inkscape:version="0.91 r13725"
   xml:space="preserve"
   width="733.22894"
   height="158.94481"
   viewBox="0 0 733.22893 158.94481"
   sodipodi:docname="logo-roopak.ai.svg"
   inkscape:export-filename="/Users/Roopak/Downloads/Logo (3)/full logo ver1/dark background/logo-roopak.ai.png"
   inkscape:export-xdpi="90"
   inkscape:export-ydpi="90"><metadata
     id="metadata3399"><rdf:RDF><cc:Work
         rdf:about=""><dc:format>image/svg+xml</dc:format><dc:type
           rdf:resource="http://purl.org/dc/dcmitype/StillImage" /><dc:title></dc:title></cc:Work></rdf:RDF></metadata><defs
     id="defs3397"><clipPath
       clipPathUnits="userSpaceOnUse"
       id="clipPath3409"><path
         d="m 0,322.484 811.459,0 L 811.459,0 0,0 0,322.484 Z"
         id="path3411"
         inkscape:connector-curvature="0" /></clipPath></defs><sodipodi:namedview
     pagecolor="#ffffff"
     bordercolor="#ffffff"
     borderopacity="0"
     objecttolerance="10"
     gridtolerance="10"
     guidetolerance="10"
     inkscape:pageopacity="0"
     inkscape:pageshadow="2"
     inkscape:window-width="1280"
     inkscape:window-height="751"
     id="namedview3395"
     showgrid="true"
     inkscape:zoom="0.80546176"
     inkscape:cx="371.10425"
     inkscape:cy="-63.254516"
     inkscape:window-x="0"
     inkscape:window-y="1"
     inkscape:window-maximized="1"
     inkscape:current-layer="g3401"
     inkscape:showpageshadow="false"
     showborder="false"
     fit-margin-top="0"
     fit-margin-left="0"
     fit-margin-right="0"
     fit-margin-bottom="0"
     width="400px"><inkscape:grid
       type="xygrid"
       id="grid4260"
       originx="-136.05825"
       originy="-122.99228" /></sodipodi:namedview><g
     id="g3401"
     inkscape:groupmode="layer"
     inkscape:label="logo"
     transform="matrix(1.25,0,0,-1.25,-136.05825,281.93706)"><path
       d="m 0,0 811.46,0 0,322.483 L 0,322.483 0,0 Z"
       style="fill:none;fill-opacity:0;fill-rule:nonzero;stroke:none"
       id="path3403"
       inkscape:connector-curvature="0" /><g
       id="g4270"
       inkscape:export-xdpi="90"
       inkscape:export-ydpi="90"><g
         id="g3405"><g
           clip-path="url(#clipPath3409)"
           id="g3407"><g
             transform="translate(131.0956,142.9953)"
             id="g3413"><path
               inkscape:connector-curvature="0"
               id="path3415"
               style="fill:#cff09e;fill-opacity:1;fill-rule:nonzero;stroke:none"
               d="m 0,0 0,9.921 -22.249,0 0,-13.422 c 0,-5.449 2.792,-10.518 7.398,-13.431 l 14.867,-9.403 0,26.325 L 0,0 Z" /></g><g
             transform="translate(197.5702,148.2925)"
             id="g3417"><path
               inkscape:connector-curvature="0"
               id="path3419"
               style="fill:#3b8686;fill-opacity:1;fill-rule:nonzero;stroke:none"
               d="m 0,0 0,-5.297 0,-26.325 14.851,9.393 c 4.606,2.913 7.398,7.982 7.398,13.431 l 0,35.67 L 0,26.872 0,0 Z" /></g><g
             transform="translate(131.0956,181.1149)"
             id="g3421"><path
               inkscape:connector-curvature="0"
               id="path3423"
               style="fill:#ebffcf;fill-opacity:1;fill-rule:nonzero;stroke:none"
               d="m 0,0 33.237,21.022 30.92,-19.556 24.566,0 0,2.035 c 0,5.449 -2.792,10.518 -7.397,13.431 L 41.732,41.974 c -5.188,3.281 -11.802,3.281 -16.989,0 L -14.851,16.932 C -19.457,14.019 -22.249,8.95 -22.249,3.501 l 0,-24.284 22.249,0 L 0,0 Z" /></g><g
             transform="translate(168.041,167.7828)"
             id="g3425"><path
               inkscape:connector-curvature="0"
               id="path3427"
               style="fill:#79bd9a;fill-opacity:1;fill-rule:nonzero;stroke:none"
               d="m 0,0 0,-43.464 0,-25.925 c 0.869,0.292 1.714,0.684 2.51,1.188 l 19.739,12.484 0,26.325 L 22.249,0 0,0 Z" /></g><g
             transform="translate(138.3763,160.2838)"
             id="g3429"><path
               inkscape:connector-curvature="0"
               id="path3431"
               style="fill:#a8dba8;fill-opacity:1;fill-rule:nonzero;stroke:none"
               d="m 0,0 0,-21.893 0,-26.325 19.738,-12.484 c 0.797,-0.504 1.641,-0.896 2.511,-1.188 l 0,25.925 L 22.249,0 0,0 Z" /></g></g></g><text
         id="text3433"
         style="font-variant:normal;font-weight:bold;font-stretch:condensed;font-size:45.37110138px;font-family:'DIN Condensed';-inkscape-font-specification:DINCondensed-Bold;writing-mode:lr-tb;fill:#ebffcf;fill-opacity:1;fill-rule:nonzero;stroke:none"
         transform="matrix(1,0,0,-1,249.6133,131.833)"><tspan
           id="tspan3435"
           sodipodi:role="line"
           y="0"
           x="0 17.740101 26.995804 47.140572 65.606613 85.751381 104.21741 113.47312 131.93916 148.72647 157.1655 174.13428 184.20667 200.17729 216.9646 237.38159 255.84763 273.54236 291.14636 299.58539 318.05142 336.83505 355.30109 372.08838 382.16077 397.90454 406.57043 425.67166 445.81644">FINANCIAL LITERACY COALITION </tspan></text>
<text
         id="text3437"
         style="font-style:italic;font-variant:normal;font-weight:normal;font-stretch:normal;font-size:29.88879967px;font-family:'Iowan Old Style';-inkscape-font-specification:IowanOldStyle-Italic;writing-mode:lr-tb;fill:#79bd9a;fill-opacity:1;fill-rule:nonzero;stroke:none"
         transform="matrix(1,0,0,-1,250.9873,171.2207)"><tspan
           id="tspan3439"
           sodipodi:role="line"
           y="0"
           x="0 17.245838 30.636021 40.917767 49.1073 62.945812 74.841553 81.656204 94.4785 115.63977 126.7584 147.11267 155.0332 173.80338 186.62567 200.91251 215.28903 224.64423">Bartholomew County</tspan></text>
</g></g></svg>