<?xml version="1.0" encoding="UTF-8" standalone="no"?>
<!-- Created with Inkscape (http://www.inkscape.org/) -->

<svg
   xmlns:dc="http://purl.org/dc/elements/1.1/"
   xmlns:cc="http://creativecommons.org/ns#"
   xmlns:rdf="http://www.w3.org/1999/02/22-rdf-syntax-ns#"
   xmlns:svg="http://www.w3.org/2000/svg"
   xmlns="http://www.w3.org/2000/svg"
   xmlns:sodipodi="http://sodipodi.sourceforge.net/DTD/sodipodi-0.dtd"
   xmlns:inkscape="http://www.inkscape.org/namespaces/inkscape"
   id="svg5102"
   version="1.1"
   inkscape:version="0.91 r13725"
   xml:space="preserve"
   width="378.75"
   height="378.75"
   viewBox="0 0 378.75 378.75"
   sodipodi:docname="logo-roopak.ai.svg"><metadata
     id="metadata5108"><rdf:RDF><cc:Work
         rdf:about=""><dc:format>image/svg+xml</dc:format><dc:type
           rdf:resource="http://purl.org/dc/dcmitype/StillImage" /><dc:title></dc:title></cc:Work></rdf:RDF></metadata><defs
     id="defs5106"><clipPath
       clipPathUnits="userSpaceOnUse"
       id="clipPath5118"><path
         d="M 0,303 303,303 303,0 0,0 0,303 Z"
         id="path5120"
         inkscape:connector-curvature="0" /></clipPath></defs><sodipodi:namedview
     pagecolor="#ffffff"
     bordercolor="#666666"
     borderopacity="1"
     objecttolerance="10"
     gridtolerance="10"
     guidetolerance="10"
     inkscape:pageopacity="0"
     inkscape:pageshadow="2"
     inkscape:window-width="1280"
     inkscape:window-height="751"
     id="namedview5104"
     showgrid="false"
     inkscape:zoom="0.62310231"
     inkscape:cx="161.28972"
     inkscape:cy="189.375"
     inkscape:window-x="0"
     inkscape:window-y="1"
     inkscape:window-maximized="1"
     inkscape:current-layer="g5110" /><g
     id="g5110"
     inkscape:groupmode="layer"
     inkscape:label="logo"
     transform="matrix(1.25,0,0,-1.25,0,378.75)"><path
       d="M 0,0 303,0 303,303 0,303 0,0 Z"
       style="fill:none;fill-opacity:0;fill-rule:nonzero;stroke:none;opacity:0"
       id="path5112"
       inkscape:connector-curvature="0" /><g
       id="g5114"
       inkscape:export-xdpi="90"
       inkscape:export-ydpi="90"><g
         id="g5116"
         clip-path="url(#clipPath5118)"><g
           id="g5122"
           transform="translate(88.9106,114.7467)"><path
             d="m 0,0 0,18.895 -42.375,0 0,-25.563 c 0,-10.378 5.317,-20.033 14.089,-25.581 L 0.03,-50.158 0.03,-0.019 0,0 Z"
             style="fill:#cff09e;fill-opacity:1;fill-rule:nonzero;stroke:none"
             id="path5124"
             inkscape:connector-curvature="0" /></g><g
           id="g5126"
           transform="translate(215.5192,124.8359)"><path
             d="m 0,0 0,-10.089 0,-50.139 28.286,17.89 c 8.772,5.548 14.089,15.203 14.089,25.581 l 0,67.938 L 0,51.181 0,0 Z"
             style="fill:#3b8686;fill-opacity:1;fill-rule:nonzero;stroke:none"
             id="path5128"
             inkscape:connector-curvature="0" /></g><g
           id="g5130"
           transform="translate(88.9106,187.35)"><path
             d="m 0,0 63.304,40.038 58.89,-37.246 46.79,0 0,3.876 c 0,10.378 -5.318,20.033 -14.089,25.581 L 79.483,79.944 c -9.88,6.25 -22.477,6.25 -32.358,0 L -28.286,32.249 C -37.058,26.701 -42.375,17.046 -42.375,6.668 l 0,-46.251 42.375,0 L 0,0 Z"
             style="fill:#ebffcf;fill-opacity:1;fill-rule:nonzero;stroke:none"
             id="path5132"
             inkscape:connector-curvature="0" /></g><g
           id="g5134"
           transform="translate(159.2774,161.9574)"><path
             d="m 0,0 0,-82.783 0,-49.377 c 1.656,0.557 3.264,1.303 4.781,2.263 l 37.594,23.777 0,50.139 L 42.375,0 0,0 Z"
             style="fill:#79bd9a;fill-opacity:1;fill-rule:nonzero;stroke:none"
             id="path5136"
             inkscape:connector-curvature="0" /></g><g
           id="g5138"
           transform="translate(102.7775,147.6747)"><path
             d="m 0,0 0,-41.699 0,-50.138 37.594,-23.777 c 1.517,-0.96 3.125,-1.706 4.781,-2.263 l 0,49.377 0,68.5 L 0,0 Z"
             style="fill:#a8dba8;fill-opacity:1;fill-rule:nonzero;stroke:none"
             id="path5140"
             inkscape:connector-curvature="0" /></g></g></g></g></svg>