<?xml version="1.0" encoding="UTF-8" standalone="no"?>
<!-- Created with Inkscape (http://www.inkscape.org/) -->

<svg
   xmlns:dc="http://purl.org/dc/elements/1.1/"
   xmlns:cc="http://creativecommons.org/ns#"
   xmlns:rdf="http://www.w3.org/1999/02/22-rdf-syntax-ns#"
   xmlns:svg="http://www.w3.org/2000/svg"
   xmlns="http://www.w3.org/2000/svg"
   xmlns:sodipodi="http://sodipodi.sourceforge.net/DTD/sodipodi-0.dtd"
   xmlns:inkscape="http://www.inkscape.org/namespaces/inkscape"
   id="svg4415"
   version="1.1"
   inkscape:version="0.91 r13725"
   xml:space="preserve"
   width="622.5"
   height="312.5"
   viewBox="0 0 622.5 312.5"
   sodipodi:docname="logo-roopak.ai.svg"><metadata
     id="metadata4421"><rdf:RDF><cc:Work
         rdf:about=""><dc:format>image/svg+xml</dc:format><dc:type
           rdf:resource="http://purl.org/dc/dcmitype/StillImage" /><dc:title></dc:title></cc:Work></rdf:RDF></metadata><defs
     id="defs4419"><clipPath
       clipPathUnits="userSpaceOnUse"
       id="clipPath4433"><path
         d="M 0,250 498,250 498,0 0,0 0,250 Z"
         id="path4435"
         inkscape:connector-curvature="0" /></clipPath></defs><sodipodi:namedview
     pagecolor="#ffffff"
     bordercolor="#666666"
     borderopacity="1"
     objecttolerance="10"
     gridtolerance="10"
     guidetolerance="10"
     inkscape:pageopacity="0"
     inkscape:pageshadow="2"
     inkscape:window-width="1280"
     inkscape:window-height="751"
     id="namedview4417"
     showgrid="false"
     inkscape:zoom="1.7568"
     inkscape:cx="211.35246"
     inkscape:cy="156.25"
     inkscape:window-x="0"
     inkscape:window-y="1"
     inkscape:window-maximized="1"
     inkscape:current-layer="g4423" /><g
     id="g4423"
     inkscape:groupmode="layer"
     inkscape:label="logo"
     transform="matrix(1.25,0,0,-1.25,0,312.5)"><path
       d="M 0,0 498,0 498,250 0,250 0,0 Z"
       style="fill:none;fill-opacity:1;fill-rule:nonzero;stroke:none;opacity:0"
       id="path4425"
       inkscape:connector-curvature="0" /><path
       d="M 0,0 498,0 498,250 0,250 0,0 Z"
       style="fill:none;fill-opacity:0;fill-rule:nonzero;stroke:none;opacity:0"
       id="path4427"
       inkscape:connector-curvature="0" /><g
       id="g5009"
       inkscape:export-xdpi="90"
       inkscape:export-ydpi="90"><g
         id="g4429"><g
           clip-path="url(#clipPath4433)"
           id="g4431"><g
             transform="translate(91.2107,101.5516)"
             id="g4437"><path
               inkscape:connector-curvature="0"
               id="path4439"
               style="fill:#cff09e;fill-opacity:1;fill-rule:nonzero;stroke:none"
               d="m 0,0 0,14.292 -32.052,0 0,-19.335 c 0,-7.85 4.022,-15.153 10.657,-19.349 l 21.418,-13.547 0,37.925 L 0,0 Z" /></g><g
             transform="translate(186.9753,109.183)"
             id="g4441"><path
               inkscape:connector-curvature="0"
               id="path4443"
               style="fill:#3b8686;fill-opacity:1;fill-rule:nonzero;stroke:none"
               d="m 0,0 0,-7.631 0,-37.925 21.395,13.532 c 6.635,4.196 10.657,11.499 10.657,19.349 l 0,51.387 L 0,38.712 0,0 Z" /></g><g
             transform="translate(91.2107,156.4676)"
             id="g4445"><path
               inkscape:connector-curvature="0"
               id="path4447"
               style="fill:#ebffcf;fill-opacity:1;fill-rule:nonzero;stroke:none"
               d="m 0,0 47.882,30.284 44.544,-28.172 35.39,0 0,2.931 c 0,7.851 -4.022,15.153 -10.656,19.349 L 60.12,60.468 c -7.474,4.727 -17.002,4.727 -24.475,0 L -21.395,24.392 C -28.03,20.196 -32.052,12.894 -32.052,5.043 l 0,-34.983 L 0,-29.94 0,0 Z" /></g><g
             transform="translate(144.435,137.261)"
             id="g4449"><path
               inkscape:connector-curvature="0"
               id="path4451"
               style="fill:#79bd9a;fill-opacity:1;fill-rule:nonzero;stroke:none"
               d="m 0,0 0,-62.615 0,-37.348 c 1.252,0.421 2.469,0.985 3.616,1.711 l 28.436,17.985 0,37.924 L 32.052,0 0,0 Z" /></g><g
             transform="translate(101.6994,126.4579)"
             id="g4453"><path
               inkscape:connector-curvature="0"
               id="path4455"
               style="fill:#a8dba8;fill-opacity:1;fill-rule:nonzero;stroke:none"
               d="m 0,0 0,-31.54 0,-37.924 28.435,-17.985 c 1.148,-0.726 2.364,-1.29 3.617,-1.711 l 0,37.348 L 32.052,0 0,0 Z" /></g></g></g><text
         id="text4457"
         style="font-style:italic;font-variant:normal;font-weight:normal;font-stretch:normal;font-size:21.23690033px;font-family:Bitter;-inkscape-font-specification:Bitter-Italic;writing-mode:lr-tb;fill:#79bd9a;fill-opacity:1;fill-rule:nonzero;stroke:none"
         transform="matrix(1,0,0,-1,237.3398,176.8384)"><tspan
           id="tspan4459"
           sodipodi:role="line"
           y="0"
           x="0 13.35801 25.951492 34.786041 41.730507 54.791203 65.813156 71.653297 83.333595 103.33875 114.23328 130.71312 137.53017 151.0793 162.7596 176.26627 189.73047 197.50317">Bartholomew County</tspan></text>
<text
         id="text4461"
         style="font-variant:normal;font-weight:bold;font-stretch:normal;font-size:37.47679901px;font-family:Interstate;-inkscape-font-specification:Interstate-Bold;writing-mode:lr-tb;fill:#ebffcf;fill-opacity:1;fill-rule:nonzero;stroke:none"
         transform="matrix(1,0,0,-1,237.3398,140.1963)"><tspan
           id="tspan4463"
           sodipodi:role="line"
           y="0"
           x="0 24.210012 36.952126 64.947296 93.054893 121.05006 146.15952 158.90163 187.00923">FINANCIAL</tspan><tspan
           id="tspan4465"
           sodipodi:role="line"
           y="36.652309"
           x="0 23.385523 36.802219 61.237091 85.597008 113.25489 140.42557 164.89792 191.65636">LITERACY </tspan><tspan
           id="tspan4467"
           sodipodi:role="line"
           y="73.304619"
           x="0 24.210012 50.031528 78.13913 101.37474 114.79144 139.03893 151.29384 177.8649">COALITION</tspan></text>
</g></g></svg>