<?xml version="1.0" encoding="utf-8"?>
<!-- Generator: Adobe Illustrator 16.0.3, SVG Export Plug-In . SVG Version: 6.00 Build 0)  -->
<!DOCTYPE svg PUBLIC "-//W3C//DTD SVG 1.1//EN" "http://www.w3.org/Graphics/SVG/1.1/DTD/svg11.dtd">
<svg version="1.1" id="Layer_1" xmlns="http://www.w3.org/2000/svg" xmlns:xlink="http://www.w3.org/1999/xlink" x="0px" y="0px"
	 width="79.307px" height="79.307px" viewBox="0 0 79.307 79.307" enable-background="new 0 0 79.307 79.307" xml:space="preserve">
<path fill="none" stroke="#FFFFFF" stroke-width="0.3612" stroke-miterlimit="10" d="M39.691,0.59
	c-21.543,0-39.007,17.464-39.007,39.008c0,21.543,17.464,39.008,39.007,39.008c21.544,0,39.008-17.465,39.008-39.008
	C78.699,18.054,61.235,0.59,39.691,0.59z M39.691,68.819c-16.14,0-29.223-13.083-29.223-29.222s13.083-29.222,29.223-29.222
	c16.139,0,29.222,13.083,29.222,29.222S55.83,68.819,39.691,68.819z"/>
<path fill="#FCC166" d="M39.691,0.59c-21.543,0-39.007,17.464-39.007,39.008c0,21.543,17.464,39.008,39.007,39.008
	c21.544,0,39.008-17.465,39.008-39.008C78.699,18.054,61.235,0.59,39.691,0.59z M39.691,68.819
	c-16.14,0-29.223-13.083-29.223-29.222s13.083-29.222,29.223-29.222c16.139,0,29.222,13.083,29.222,29.222
	S55.83,68.819,39.691,68.819z M39.691,68.234c-15.817,0-28.638-12.82-28.638-28.637c0-15.816,12.821-28.638,28.638-28.638
	c15.816,0,28.637,12.822,28.637,28.638C68.328,55.414,55.508,68.234,39.691,68.234z"/>
<g>
	<path fill="#FFFFFF" d="M20.698,23.879v0.949h-2.582v2.243h2.582v0.949h-2.582v3.196h-0.949v-7.337H20.698z"/>
	<path fill="#FFFFFF" d="M22.767,23.879v7.337h-0.949v-7.337H22.767z"/>
	<path fill="#FFFFFF" d="M24.279,23.879h0.867l3.026,5.237v-5.237h0.954v7.337h-0.83l-3.068-5.301v5.301h-0.949V23.879z"/>
	<path fill="#FFFFFF" d="M33.183,23.879l2.669,7.337h-1.009l-0.945-2.596h-1.944l-0.939,2.596H30l2.669-7.337H33.183z
		 M33.554,27.672l-0.628-1.72l-0.624,1.72H33.554z"/>
	<path fill="#FFFFFF" d="M36.724,23.879h0.867l3.026,5.237v-5.237h0.954v7.337h-0.83l-3.068-5.301v5.301h-0.949V23.879z"/>
	<path fill="#FFFFFF" d="M48.587,29.47l0.711,0.637c-0.868,0.792-1.787,1.188-2.756,1.188c-1.037,0-1.92-0.365-2.651-1.096
		c-0.73-0.73-1.096-1.614-1.096-2.651c0-1.033,0.365-1.917,1.096-2.65c0.731-0.734,1.614-1.101,2.651-1.101
		c0.969,0,1.888,0.396,2.756,1.188l-0.711,0.647c-0.654-0.581-1.336-0.872-2.045-0.872c-0.768,0-1.424,0.272-1.97,0.816
		c-0.546,0.544-0.819,1.202-0.819,1.972c0,0.774,0.273,1.433,0.819,1.977c0.546,0.544,1.202,0.816,1.97,0.816
		C47.251,30.341,47.933,30.05,48.587,29.47z"/>
	<path fill="#FFFFFF" d="M51.283,23.879v7.337h-0.949v-7.337H51.283z"/>
	<path fill="#FFFFFF" d="M55.392,23.879l2.669,7.337h-1.009l-0.945-2.596h-1.944l-0.939,2.596h-1.014l2.669-7.337H55.392z
		 M55.763,27.672l-0.628-1.72l-0.624,1.72H55.763z"/>
	<path fill="#FFFFFF" d="M58.933,31.217v-7.337h0.949v6.383h2.624v0.954H58.933z"/>
	<path fill="#FFFFFF" d="M19.396,42.126v-7.337h0.949v6.383h2.624v0.954H19.396z"/>
	<path fill="#FFFFFF" d="M24.932,34.789v7.337h-0.949v-7.337H24.932z"/>
	<path fill="#FFFFFF" d="M28.521,35.738v6.388h-0.954v-6.388h-1.71v-0.949h4.375v0.949H28.521z"/>
	<path fill="#FFFFFF" d="M35.059,34.789v0.949h-3.004v2.243h3.004v0.949h-3.004v2.242h3.004v0.954h-3.953v-7.337H35.059z"/>
	<path fill="#FFFFFF" d="M38.134,39.777h-0.867v2.349h-0.949v-7.337h2.082c0.591,0.08,1.089,0.323,1.495,0.729
		c0.486,0.489,0.729,1.076,0.729,1.761c0,0.691-0.243,1.281-0.729,1.77c-0.336,0.336-0.593,0.526-0.771,0.568l1.628,2.509h-1.15
		L38.134,39.777z M37.267,35.742v3.082h0.867c0.422,0,0.783-0.151,1.085-0.452c0.301-0.301,0.451-0.666,0.451-1.094
		c0-0.425-0.15-0.787-0.451-1.087c-0.302-0.3-0.663-0.45-1.085-0.45H37.267z"/>
	<path fill="#FFFFFF" d="M44.578,34.789l2.669,7.337h-1.009l-0.945-2.596h-1.944l-0.939,2.596h-1.014l2.669-7.337H44.578z
		 M44.949,38.581l-0.628-1.72l-0.624,1.72H44.949z"/>
	<path fill="#FFFFFF" d="M53.231,40.379l0.711,0.637c-0.868,0.793-1.787,1.188-2.756,1.188c-1.037,0-1.92-0.365-2.651-1.097
		c-0.73-0.73-1.096-1.614-1.096-2.65c0-1.033,0.365-1.917,1.096-2.65c0.731-0.734,1.614-1.101,2.651-1.101
		c0.969,0,1.888,0.396,2.756,1.188l-0.711,0.647c-0.654-0.581-1.336-0.872-2.045-0.872c-0.768,0-1.424,0.272-1.97,0.816
		c-0.546,0.544-0.819,1.202-0.819,1.972c0,0.774,0.273,1.433,0.819,1.977c0.546,0.545,1.202,0.816,1.97,0.816
		C51.896,41.25,52.577,40.959,53.231,40.379z"/>
	<path fill="#FFFFFF" d="M56.97,39.182l-2.536-4.393h1.091l1.917,3.32l1.922-3.32h1.096l-2.54,4.393v2.944H56.97V39.182z"/>
	<path fill="#FFFFFF" d="M21.247,51.288l0.711,0.638c-0.868,0.791-1.787,1.188-2.756,1.188c-1.037,0-1.92-0.365-2.651-1.097
		c-0.73-0.73-1.096-1.613-1.096-2.65c0-1.033,0.365-1.917,1.096-2.65c0.731-0.733,1.614-1.101,2.651-1.101
		c0.969,0,1.888,0.396,2.756,1.188l-0.711,0.646c-0.654-0.581-1.336-0.871-2.045-0.871c-0.768,0-1.424,0.272-1.97,0.816
		s-0.819,1.201-0.819,1.972c0,0.773,0.273,1.433,0.819,1.977s1.202,0.816,1.97,0.816C19.911,52.159,20.593,51.869,21.247,51.288z"/>
	<path fill="#FFFFFF" d="M28.325,46.702c0.733,0.733,1.101,1.619,1.101,2.655s-0.367,1.921-1.101,2.655
		c-0.733,0.733-1.619,1.101-2.655,1.101s-1.922-0.367-2.655-1.101c-0.733-0.734-1.101-1.619-1.101-2.655s0.367-1.922,1.101-2.655
		s1.619-1.101,2.655-1.101S27.592,45.969,28.325,46.702z M25.67,46.56c-0.773,0-1.433,0.273-1.979,0.819
		c-0.546,0.545-0.819,1.205-0.819,1.979s0.274,1.434,0.821,1.98c0.547,0.548,1.206,0.821,1.977,0.821
		c0.773,0,1.433-0.273,1.979-0.821c0.546-0.547,0.819-1.207,0.819-1.98s-0.273-1.434-0.819-1.979
		C27.103,46.833,26.443,46.56,25.67,46.56z"/>
	<path fill="#FFFFFF" d="M32.71,45.697l2.669,7.338H34.37l-0.945-2.596H31.48l-0.939,2.596h-1.014l2.669-7.338H32.71z M33.081,49.49
		l-0.628-1.72l-0.624,1.72H33.081z"/>
	<path fill="#FFFFFF" d="M36.25,53.035v-7.338h0.949v6.384h2.624v0.954H36.25z"/>
	<path fill="#FFFFFF" d="M41.786,45.697v7.338h-0.949v-7.338H41.786z"/>
	<path fill="#FFFFFF" d="M45.376,46.647v6.388h-0.954v-6.388h-1.71v-0.95h4.375v0.95H45.376z"/>
	<path fill="#FFFFFF" d="M48.956,45.697v7.338h-0.949v-7.338H48.956z"/>
	<path fill="#FFFFFF" d="M56.655,46.702c0.733,0.733,1.101,1.619,1.101,2.655s-0.367,1.921-1.101,2.655
		c-0.733,0.733-1.619,1.101-2.655,1.101s-1.922-0.367-2.655-1.101c-0.733-0.734-1.101-1.619-1.101-2.655s0.367-1.922,1.101-2.655
		s1.619-1.101,2.655-1.101S55.922,45.969,56.655,46.702z M54,46.56c-0.773,0-1.433,0.273-1.979,0.819
		c-0.546,0.545-0.819,1.205-0.819,1.979s0.274,1.434,0.821,1.98c0.547,0.548,1.206,0.821,1.977,0.821
		c0.773,0,1.433-0.273,1.979-0.821c0.546-0.547,0.819-1.207,0.819-1.98s-0.273-1.434-0.819-1.979
		C55.433,46.833,54.773,46.56,54,46.56z"/>
	<path fill="#FFFFFF" d="M58.98,45.697h0.867l3.026,5.237v-5.237h0.954v7.338h-0.83l-3.068-5.302v5.302H58.98V45.697z"/>
</g>
<g>
	<circle fill="none" cx="39.697" cy="39.282" r="31.066"/>
	<path fill="#FFFFFF" d="M14.334,13.182c0.223-0.213,0.489-0.317,0.799-0.311c0.311,0.006,0.572,0.121,0.785,0.344
		c0.22,0.229,0.239,0.482,0.061,0.757c0.19-0.135,0.493-0.198,0.91-0.188c0.416,0.01,0.805,0.204,1.166,0.581
		c0.36,0.377,0.539,0.83,0.537,1.357c-0.002,0.496-0.127,0.865-0.374,1.108l0.005,0.005l-0.986,0.943l-3.683-3.851L14.334,13.182z
		 M14.528,13.949l0.582,0.609l0.325-0.311c0.067-0.077,0.104-0.166,0.109-0.266c0.008-0.108-0.032-0.207-0.118-0.297
		c-0.086-0.09-0.187-0.135-0.303-0.136s-0.221,0.043-0.313,0.132L14.528,13.949z M15.601,15.071l1.655,1.73l0.488-0.467
		l-0.007-0.007c0.097-0.104,0.145-0.309,0.146-0.614c0.003-0.334-0.11-0.621-0.339-0.86c-0.226-0.236-0.502-0.357-0.83-0.365
		s-0.61,0.102-0.846,0.327L15.601,15.071z"/>
	<path fill="#FFFFFF" d="M18.377,9.784l4.71,3.156l-0.591,0.433l-1.667-1.116l-1.14,0.833l0.563,1.924l-0.594,0.435l-1.582-5.444
		L18.377,9.784z M20.221,11.848l-1.105-0.738l0.372,1.275L20.221,11.848z"/>
	<path fill="#FFFFFF" d="M24.091,10.46l-0.555,0.298l0.807,1.502l-0.606,0.326l-2.522-4.693l1.332-0.716
		c0.404-0.152,0.807-0.167,1.206-0.047c0.479,0.146,0.837,0.438,1.072,0.875c0.237,0.442,0.284,0.903,0.142,1.383
		c-0.1,0.331-0.198,0.541-0.297,0.629l1.903,1.044l-0.736,0.396L24.091,10.46z M22.149,8.177l1.059,1.971l0.555-0.298
		c0.27-0.145,0.449-0.366,0.538-0.662c0.089-0.296,0.061-0.581-0.087-0.854c-0.146-0.272-0.367-0.452-0.662-0.54
		c-0.296-0.088-0.578-0.06-0.849,0.085L22.149,8.177z"/>
	<path fill="#FFFFFF" d="M27.13,5.853l1.675,4.325l-0.646,0.25l-1.675-4.325l-1.158,0.449l-0.249-0.643l2.962-1.147l0.249,0.643
		L27.13,5.853z"/>
	<path fill="#FFFFFF" d="M30.861,7.188l0.53,2.14l-0.669,0.166l-1.283-5.171l0.669-0.166l0.587,2.362l1.596-0.396l-0.586-2.362
		l0.669-0.166l1.283,5.17l-0.669,0.166l-0.531-2.139L30.861,7.188z"/>
	<path fill="#FFFFFF" d="M38.879,3.576c0.571,0.491,0.886,1.111,0.942,1.862c0.058,0.75-0.159,1.411-0.65,1.983
		c-0.49,0.572-1.111,0.886-1.861,0.943c-0.751,0.057-1.411-0.16-1.983-0.65c-0.571-0.491-0.886-1.111-0.942-1.862
		c-0.058-0.75,0.159-1.411,0.65-1.983c0.49-0.572,1.111-0.886,1.861-0.943C37.646,2.869,38.307,3.085,38.879,3.576z M36.948,3.62
		c-0.56,0.042-1.022,0.276-1.388,0.702c-0.364,0.425-0.526,0.917-0.483,1.478s0.277,1.023,0.703,1.389
		c0.427,0.366,0.919,0.528,1.477,0.485c0.56-0.042,1.022-0.277,1.388-0.703c0.364-0.426,0.526-0.919,0.483-1.479
		s-0.276-1.022-0.702-1.388C38.001,3.738,37.509,3.577,36.948,3.62z"/>
	<path fill="#FFFFFF" d="M41.042,8.223l0.429-5.31l0.688,0.056l-0.374,4.62l1.898,0.154l-0.056,0.69L41.042,8.223z"/>
	<path fill="#FFFFFF" d="M49.411,4.904c0.403,0.636,0.523,1.322,0.358,2.056c-0.165,0.734-0.565,1.303-1.202,1.706
		c-0.636,0.403-1.321,0.522-2.056,0.358s-1.303-0.565-1.706-1.202c-0.403-0.637-0.522-1.322-0.358-2.056
		c0.165-0.734,0.565-1.303,1.202-1.706c0.637-0.403,1.321-0.523,2.056-0.358C48.439,3.867,49.009,4.267,49.411,4.904z M47.553,4.381
		c-0.548-0.123-1.059-0.034-1.532,0.266c-0.473,0.3-0.771,0.724-0.894,1.272c-0.123,0.548-0.034,1.059,0.267,1.534
		c0.301,0.475,0.724,0.773,1.27,0.896c0.548,0.123,1.059,0.034,1.532-0.267c0.474-0.301,0.772-0.726,0.896-1.273
		c0.122-0.548,0.034-1.059-0.266-1.532S48.101,4.504,47.553,4.381z"/>
	<path fill="#FFFFFF" d="M52.898,5.315l0.365,3.431l2.786-2.029l0.575,0.255L54.46,11.84l-0.63-0.28l1.564-3.517l-2.688,1.954
		L52.353,6.69l-1.564,3.517l-0.63-0.28l2.165-4.868L52.898,5.315z"/>
	<path fill="#FFFFFF" d="M60.83,9.613l-0.378,0.577l-1.825-1.193l-0.891,1.363l1.825,1.193l-0.377,0.577l-1.826-1.194l-0.891,1.363
		l1.825,1.194l-0.379,0.58l-2.402-1.571l2.916-4.459L60.83,9.613z"/>
	<path fill="#FFFFFF" d="M60.891,15.221l2.898-3.219l0.513,0.461l-2.899,3.219c-0.009,0.043-0.012,0.103-0.01,0.18
		c0.016,0.199,0.097,0.364,0.243,0.497s0.321,0.194,0.522,0.186s0.368-0.085,0.501-0.232l2.649-2.942l0.515,0.463l-2.668,2.962
		c-0.257,0.273-0.576,0.419-0.955,0.439c-0.394,0.022-0.736-0.098-1.028-0.361c-0.29-0.261-0.438-0.58-0.443-0.955
		c-0.376,0.032-0.708-0.083-0.999-0.344c-0.292-0.263-0.446-0.59-0.464-0.982c-0.022-0.379,0.09-0.711,0.337-0.996l2.668-2.961
		l0.512,0.461l-2.649,2.942c-0.132,0.146-0.192,0.321-0.179,0.522c0.013,0.201,0.093,0.368,0.239,0.5
		c0.148,0.134,0.321,0.197,0.52,0.19C60.791,15.246,60.85,15.236,60.891,15.221z"/>
</g>
<g>
	<circle fill="none" cx="39.697" cy="39.282" r="31.066"/>
	<path fill="#FFFFFF" d="M29.796,73.819l0.337,0.605c-0.783,0.338-1.508,0.393-2.173,0.164c-0.712-0.245-1.231-0.705-1.561-1.38
		c-0.329-0.674-0.371-1.367-0.126-2.078c0.244-0.71,0.704-1.229,1.379-1.561c0.676-0.331,1.369-0.374,2.08-0.129
		c0.666,0.229,1.202,0.718,1.611,1.467l-0.641,0.275c-0.312-0.553-0.711-0.914-1.198-1.081c-0.526-0.182-1.042-0.15-1.545,0.095
		c-0.504,0.244-0.847,0.631-1.028,1.16c-0.183,0.531-0.151,1.048,0.095,1.55c0.246,0.503,0.632,0.845,1.159,1.026
		C28.672,74.102,29.209,74.063,29.796,73.819z"/>
	<path fill="#FFFFFF" d="M36.189,71.691c0.438,0.613,0.595,1.291,0.471,2.033c-0.124,0.743-0.493,1.333-1.106,1.771
		s-1.291,0.594-2.033,0.47s-1.332-0.493-1.77-1.106s-0.595-1.291-0.471-2.033c0.125-0.742,0.493-1.332,1.106-1.77
		s1.291-0.595,2.033-0.47C35.162,70.71,35.752,71.078,36.189,71.691z M34.306,71.271c-0.554-0.092-1.06,0.024-1.516,0.35
		s-0.73,0.766-0.823,1.319s0.024,1.06,0.351,1.517c0.326,0.458,0.766,0.732,1.317,0.825c0.554,0.092,1.06-0.024,1.516-0.352
		c0.456-0.326,0.73-0.767,0.823-1.32s-0.023-1.059-0.35-1.516C35.299,71.639,34.859,71.364,34.306,71.271z"/>
	<path fill="#FFFFFF" d="M40.502,71.11l0.692,0.012l-0.061,3.752c-0.067,0.428-0.249,0.786-0.547,1.077
		c-0.361,0.349-0.791,0.52-1.291,0.512c-0.499-0.009-0.923-0.192-1.271-0.552c-0.348-0.36-0.519-0.79-0.51-1.289l0.058-3.559
		l0.692,0.011l-0.058,3.56c-0.005,0.306,0.1,0.57,0.315,0.792c0.215,0.223,0.477,0.336,0.785,0.341
		c0.311,0.005,0.576-0.1,0.798-0.313c0.221-0.214,0.334-0.475,0.339-0.783L40.502,71.11z"/>
	<path fill="#FFFFFF" d="M42.002,71.061l0.625-0.08l2.659,3.495l-0.479-3.771l0.688-0.088l0.672,5.285l-0.599,0.076l-2.695-3.538
		l0.486,3.818l-0.685,0.088L42.002,71.061z"/>
	<path fill="#FFFFFF" d="M47.91,70.737l1.121,4.501l-0.672,0.168l-1.121-4.501l-1.205,0.3l-0.167-0.669l3.083-0.768l0.166,0.669
		L47.91,70.737z"/>
	<path fill="#FFFFFF" d="M52.035,72.048l-2.871-2.308l0.739-0.286l2.17,1.744l0.428-2.753l0.742-0.287l-0.565,3.641l0.773,1.993
		l-0.643,0.249L52.035,72.048z"/>
</g>
<g>
</g>
<g>
</g>
<g>
</g>
<g>
</g>
<g>
</g>
<g>
</g>
<g>
</g>
<g>
</g>
<g>
</g>
<g>
</g>
<g>
</g>
<g>
</g>
<g>
</g>
<g>
</g>
<g>
</g>
</svg>
