<?xml version="1.0" encoding="UTF-8" standalone="no"?>
<!-- Created with Inkscape (http://www.inkscape.org/) -->

<svg
   xmlns:dc="http://purl.org/dc/elements/1.1/"
   xmlns:cc="http://creativecommons.org/ns#"
   xmlns:rdf="http://www.w3.org/1999/02/22-rdf-syntax-ns#"
   xmlns:svg="http://www.w3.org/2000/svg"
   xmlns="http://www.w3.org/2000/svg"
   xmlns:sodipodi="http://sodipodi.sourceforge.net/DTD/sodipodi-0.dtd"
   xmlns:inkscape="http://www.inkscape.org/namespaces/inkscape"
   id="svg5540"
   version="1.1"
   inkscape:version="0.91 r13725"
   xml:space="preserve"
   width="220"
   height="247.5"
   viewBox="0 0 220 247.5"
   sodipodi:docname="logo_logo.svg"
   inkscape:export-filename="/Applications/mampstack-5.5.31-0/apache2/htdocs/files/Logo_Raw/full logo ver2/transparent background/logo_logo.png"
   inkscape:export-xdpi="74.879997"
   inkscape:export-ydpi="74.879997"><metadata
     id="metadata5546"><rdf:RDF><cc:Work
         rdf:about=""><dc:format>image/svg+xml</dc:format><dc:type
           rdf:resource="http://purl.org/dc/dcmitype/StillImage" /><dc:title></dc:title></cc:Work></rdf:RDF></metadata><defs
     id="defs5544"><clipPath
       clipPathUnits="userSpaceOnUse"
       id="clipPath5554"><path
         d="M 0,250 498,250 498,0 0,0 0,250 Z"
         id="path5556"
         inkscape:connector-curvature="0" /></clipPath></defs><sodipodi:namedview
     pagecolor="#ffffff"
     bordercolor="#666666"
     borderopacity="1"
     objecttolerance="10"
     gridtolerance="10"
     guidetolerance="10"
     inkscape:pageopacity="0"
     inkscape:pageshadow="2"
     inkscape:window-width="1280"
     inkscape:window-height="751"
     id="namedview5542"
     showgrid="false"
     width="219px"
     inkscape:zoom="2.2181818"
     inkscape:cx="110"
     inkscape:cy="123.75"
     inkscape:window-x="0"
     inkscape:window-y="1"
     inkscape:window-maximized="1"
     inkscape:current-layer="g5548" /><g
     id="g5548"
     inkscape:groupmode="layer"
     inkscape:label="logo copy"
     transform="matrix(1.25,0,0,-1.25,0,247.5)"
     style="display:inline;opacity:1"><g
       id="g5550"
       transform="translate(-51.2,-30.4)"
       style=""><g
         id="g5552"
         clip-path="url(#clipPath5554)"
         style=""><g
           id="g5558"
           transform="translate(91.2107,101.5516)"
           style=""><path
             d="m 0,0 0,14.292 -32.052,0 0,-19.335 c 0,-7.85 4.022,-15.153 10.657,-19.349 l 21.418,-13.547 0,37.925 L 0,0 Z"
             style="fill:#cff09e;fill-opacity:1;fill-rule:nonzero;stroke:none"
             id="path5560"
             inkscape:connector-curvature="0" /></g><g
           id="g5562"
           transform="translate(186.9753,109.183)"
           style=""><path
             d="m 0,0 0,-7.631 0,-37.925 21.395,13.532 c 6.635,4.196 10.657,11.499 10.657,19.349 l 0,51.387 L 0,38.712 0,0 Z"
             style="fill:#3b8686;fill-opacity:1;fill-rule:nonzero;stroke:none"
             id="path5564"
             inkscape:connector-curvature="0" /></g><g
           id="g5566"
           transform="translate(91.2107,156.4676)"
           style=""><path
             d="m 0,0 47.882,30.284 44.544,-28.172 35.39,0 0,2.931 c 0,7.851 -4.022,15.153 -10.656,19.349 L 60.12,60.468 c -7.474,4.727 -17.002,4.727 -24.475,0 L -21.395,24.392 C -28.03,20.196 -32.052,12.894 -32.052,5.043 l 0,-34.983 L 0,-29.94 0,0 Z"
             style="fill:#0b486b;fill-opacity:1;fill-rule:nonzero;stroke:none"
             id="path5568"
             inkscape:connector-curvature="0" /></g><g
           id="g5570"
           transform="translate(144.435,137.261)"
           style=""><path
             d="m 0,0 0,-62.615 0,-37.348 c 1.252,0.421 2.469,0.985 3.616,1.711 l 28.436,17.985 0,37.924 L 32.052,0 0,0 Z"
             style="fill:#79bd9a;fill-opacity:1;fill-rule:nonzero;stroke:none"
             id="path5572"
             inkscape:connector-curvature="0" /></g><g
           id="g5574"
           transform="translate(101.6994,126.4579)"
           style=""><path
             d="m 0,0 0,-31.54 0,-37.924 28.435,-17.985 c 1.148,-0.726 2.364,-1.29 3.617,-1.711 l 0,37.348 L 32.052,0 0,0 Z"
             style="fill:#a8dba8;fill-opacity:1;fill-rule:nonzero;stroke:none"
             id="path5576"
             inkscape:connector-curvature="0" /></g></g></g></g></svg>